<svg width="747" height="560" viewBox="0 0 747 560" fill="none" xmlns="http://www.w3.org/2000/svg">
<path d="M49.4046 442.339C100.103 392.284 181.779 392.805 231.834 443.503L346.429 559.571H13.5547C5.31728 518.411 17.3011 474.035 49.4046 442.339Z" fill="#3567EA"/>
<path d="M49.7976 37.2027C100.496 -12.8523 182.172 -12.3308 232.227 38.3674L746.818 559.571H384.258L48.6328 219.633C-1.42218 168.935 -0.900608 87.2577 49.7976 37.2027Z" fill="#3567EA"/>
<path d="M8 322.571C12.4183 322.571 16 318.989 16 314.571C16 310.152 12.4183 306.571 8 306.571C3.58172 306.571 0 310.152 0 314.571C0 318.989 3.58172 322.571 8 322.571Z" fill="#A3BAFB"/>
<path d="M61 396.571C67.0751 396.571 72 391.646 72 385.571C72 379.495 67.0751 374.571 61 374.571C54.9249 374.571 50 379.495 50 385.571C50 391.646 54.9249 396.571 61 396.571Z" fill="#A3BAFB"/>
<path d="M734 264.571C729.582 264.571 726 260.989 726 256.571C726 252.152 729.582 248.571 734 248.571C738.418 248.571 742 252.152 742 256.571C742 260.989 738.418 264.571 734 264.571Z" fill="#A3BAFB"/>
<path d="M681 338.571C674.925 338.571 670 333.646 670 327.571C670 321.495 674.925 316.571 681 316.571C687.075 316.571 692 321.495 692 327.571C692 333.646 687.075 338.571 681 338.571Z" fill="#A3BAFB"/>
</svg>
